<mxfile host="65bd71144e">
    <diagram id="jMDsNXws-JcLPn4I8f3B" name="Page-1">
        <mxGraphModel dx="8488" dy="2940" grid="0" gridSize="10" guides="1" tooltips="1" connect="1" arrows="1" fold="1" page="0" pageScale="1" pageWidth="827" pageHeight="1169" background="#ffffff" math="0" shadow="0">
            <root>
                <mxCell id="0"/>
                <mxCell id="1" parent="0"/>
                <mxCell id="31" value="" style="swimlane;whiteSpace=wrap;html=1;fontColor=#000000;fillColor=#6666FF;" vertex="1" parent="1">
                    <mxGeometry x="2919" y="1451" width="166" height="118" as="geometry"/>
                </mxCell>
                <mxCell id="32" value="выставление счетов клиентам" style="rounded=0;whiteSpace=wrap;html=1;fillColor=#e3c800;fontColor=#000000;strokeColor=#B09500;" vertex="1" parent="31">
                    <mxGeometry x="19" y="33" width="120" height="60" as="geometry"/>
                </mxCell>
                <mxCell id="33" value="" style="swimlane;whiteSpace=wrap;html=1;fontColor=#000000;fillColor=#6666FF;" vertex="1" parent="1">
                    <mxGeometry x="2941.5" y="1608" width="165" height="125" as="geometry"/>
                </mxCell>
                <mxCell id="34" value="выплаты воркерам" style="rounded=0;whiteSpace=wrap;html=1;fillColor=#e3c800;fontColor=#000000;strokeColor=#B09500;" vertex="1" parent="33">
                    <mxGeometry x="21" y="33" width="120" height="60" as="geometry"/>
                </mxCell>
                <mxCell id="35" value="" style="swimlane;whiteSpace=wrap;html=1;fontColor=#000000;fillColor=#FFFFFF;" vertex="1" parent="1">
                    <mxGeometry x="2729" y="1014" width="163" height="124" as="geometry"/>
                </mxCell>
                <mxCell id="36" value="ставки на выполнение услуг воркерами" style="rounded=0;whiteSpace=wrap;html=1;fillColor=#e3c800;fontColor=#000000;strokeColor=#B09500;" vertex="1" parent="35">
                    <mxGeometry x="22" y="33" width="120" height="60" as="geometry"/>
                </mxCell>
                <mxCell id="37" style="edgeStyle=none;html=1;exitX=0;exitY=0.75;exitDx=0;exitDy=0;entryX=1;entryY=0.75;entryDx=0;entryDy=0;dashed=1;strokeColor=#FF0000;fontSize=11;fontColor=#000000;" edge="1" parent="1" source="39" target="49">
                    <mxGeometry relative="1" as="geometry"/>
                </mxCell>
                <mxCell id="38" value="стриминг событие&lt;br&gt;&amp;nbsp;о результатах отбора" style="edgeLabel;html=1;align=center;verticalAlign=middle;resizable=0;points=[];fontSize=11;fontColor=#000000;labelBackgroundColor=none;" vertex="1" connectable="0" parent="37">
                    <mxGeometry x="-0.3167" relative="1" as="geometry">
                        <mxPoint as="offset"/>
                    </mxGeometry>
                </mxCell>
                <mxCell id="39" value="" style="swimlane;whiteSpace=wrap;html=1;fontColor=#000000;fillColor=#6666FF;" vertex="1" parent="1">
                    <mxGeometry x="2477" y="977" width="138" height="127" as="geometry"/>
                </mxCell>
                <mxCell id="40" value="отсев воркера" style="rounded=0;whiteSpace=wrap;html=1;fillColor=#e3c800;fontColor=#000000;strokeColor=#B09500;" vertex="1" parent="39">
                    <mxGeometry x="17" y="37" width="90" height="64" as="geometry"/>
                </mxCell>
                <mxCell id="41" style="edgeStyle=none;html=1;exitX=0;exitY=0;exitDx=0;exitDy=0;dashed=1;strokeColor=#FF0000;fontSize=11;fontColor=#000000;" edge="1" parent="1" source="43">
                    <mxGeometry relative="1" as="geometry">
                        <mxPoint x="2149.4736842105267" y="1442.315789473685" as="targetPoint"/>
                    </mxGeometry>
                </mxCell>
                <mxCell id="42" value="стриминг событие &lt;br&gt;о назначенном воркере" style="edgeLabel;html=1;align=center;verticalAlign=middle;resizable=0;points=[];fontSize=11;fontColor=#000000;labelBackgroundColor=none;" vertex="1" connectable="0" parent="41">
                    <mxGeometry x="-0.1594" y="-1" relative="1" as="geometry">
                        <mxPoint as="offset"/>
                    </mxGeometry>
                </mxCell>
                <mxCell id="43" value="" style="swimlane;whiteSpace=wrap;html=1;fontColor=#000000;fillColor=#6666FF;" vertex="1" parent="1">
                    <mxGeometry x="2128" y="1514.5" width="184" height="126.5" as="geometry"/>
                </mxCell>
                <mxCell id="44" value="подбор воркера" style="rounded=0;whiteSpace=wrap;html=1;fillColor=#e3c800;fontColor=#000000;strokeColor=#B09500;" vertex="1" parent="43">
                    <mxGeometry x="35" y="29" width="120" height="60" as="geometry"/>
                </mxCell>
                <mxCell id="45" style="edgeStyle=none;html=1;exitX=1;exitY=0.5;exitDx=0;exitDy=0;entryX=0;entryY=0.5;entryDx=0;entryDy=0;strokeColor=#3333FF;fontSize=11;fontColor=#000000;dashed=1;" edge="1" parent="1" source="49" target="39">
                    <mxGeometry relative="1" as="geometry"/>
                </mxCell>
                <mxCell id="46" value="бизнес событие &lt;br&gt;о новом кандидате" style="edgeLabel;html=1;align=center;verticalAlign=middle;resizable=0;points=[];fontSize=11;fontColor=#000000;labelBackgroundColor=none;" vertex="1" connectable="0" parent="45">
                    <mxGeometry x="0.3872" relative="1" as="geometry">
                        <mxPoint x="-12" y="-14" as="offset"/>
                    </mxGeometry>
                </mxCell>
                <mxCell id="47" style="edgeStyle=none;html=1;exitX=0.75;exitY=1;exitDx=0;exitDy=0;entryX=0.5;entryY=0;entryDx=0;entryDy=0;dashed=1;strokeColor=#FF0000;fontSize=11;fontColor=#000000;" edge="1" parent="1" source="49" target="68">
                    <mxGeometry relative="1" as="geometry"/>
                </mxCell>
                <mxCell id="48" value="стриминг события с воркерами" style="edgeLabel;html=1;align=center;verticalAlign=middle;resizable=0;points=[];fontSize=11;fontColor=#000000;labelBackgroundColor=none;" vertex="1" connectable="0" parent="47">
                    <mxGeometry x="-0.4656" y="-3" relative="1" as="geometry">
                        <mxPoint as="offset"/>
                    </mxGeometry>
                </mxCell>
                <mxCell id="49" value="" style="swimlane;whiteSpace=wrap;html=1;fontColor=#000000;fillColor=#6666FF;" vertex="1" parent="1">
                    <mxGeometry x="2128" y="977" width="179" height="140" as="geometry"/>
                </mxCell>
                <mxCell id="50" value="поиск лучших котов-воркеров" style="rounded=0;whiteSpace=wrap;html=1;fillColor=#e3c800;fontColor=#000000;strokeColor=#B09500;" vertex="1" parent="49">
                    <mxGeometry x="40" y="33" width="120" height="60" as="geometry"/>
                </mxCell>
                <mxCell id="51" value="" style="swimlane;whiteSpace=wrap;html=1;fontColor=#000000;fillColor=#FFFFFF;" vertex="1" parent="1">
                    <mxGeometry x="2364" y="1517" width="165" height="124" as="geometry"/>
                </mxCell>
                <mxCell id="52" value="сборка заказов" style="rounded=0;whiteSpace=wrap;html=1;fillColor=#e3c800;fontColor=#000000;strokeColor=#B09500;" vertex="1" parent="51">
                    <mxGeometry x="17" y="32" width="120" height="60" as="geometry"/>
                </mxCell>
                <mxCell id="53" value="" style="swimlane;whiteSpace=wrap;html=1;fontColor=#000000;fillColor=#6666FF;" vertex="1" parent="1">
                    <mxGeometry x="2835" y="1251" width="156" height="123" as="geometry"/>
                </mxCell>
                <mxCell id="54" value="оценка качества работы воркеров" style="rounded=0;whiteSpace=wrap;html=1;fillColor=#e3c800;fontColor=#000000;strokeColor=#B09500;" vertex="1" parent="53">
                    <mxGeometry x="16" y="30" width="120" height="60" as="geometry"/>
                </mxCell>
                <mxCell id="55" style="edgeStyle=none;html=1;exitX=1;exitY=0.75;exitDx=0;exitDy=0;entryX=0;entryY=0.75;entryDx=0;entryDy=0;fontSize=11;fontColor=#000000;strokeColor=#FF0000;dashed=1;" edge="1" parent="1" source="68" target="33">
                    <mxGeometry relative="1" as="geometry"/>
                </mxCell>
                <mxCell id="56" value="стриминг событие о заказах" style="edgeLabel;html=1;align=center;verticalAlign=middle;resizable=0;points=[];fontSize=11;fontColor=#000000;labelBackgroundColor=none;" vertex="1" connectable="0" parent="55">
                    <mxGeometry x="0.6103" y="-4" relative="1" as="geometry">
                        <mxPoint x="11" y="-39" as="offset"/>
                    </mxGeometry>
                </mxCell>
                <mxCell id="57" style="edgeStyle=none;html=1;exitX=1;exitY=0.75;exitDx=0;exitDy=0;entryX=0;entryY=0.5;entryDx=0;entryDy=0;dashed=1;strokeColor=#FF0000;fontSize=11;fontColor=#000000;" edge="1" parent="1" source="68" target="31">
                    <mxGeometry relative="1" as="geometry"/>
                </mxCell>
                <mxCell id="58" value="&lt;span style=&quot;color: rgba(0, 0, 0, 0); font-family: monospace; font-size: 0px; text-align: start;&quot;&gt;%3CmxGraphModel%3E%3Croot%3E%3CmxCell%20id%3D%220%22%2F%3E%3CmxCell%20id%3D%221%22%20parent%3D%220%22%2F%3E%3CmxCell%20id%3D%222%22%20value%3D%22%D1%81%D1%82%D1%80%D0%B8%D0%BC%D0%B8%D0%BD%D0%B3%20%D1%81%D0%BE%D0%B1%D1%8B%D1%82%D0%B8%D0%B5%20%D0%BE%20%D0%B7%D0%B0%D0%BA%D0%B0%D0%B7%D0%B0%D1%85%22%20style%3D%22edgeLabel%3Bhtml%3D1%3Balign%3Dcenter%3BverticalAlign%3Dmiddle%3Bresizable%3D0%3Bpoints%3D%5B%5D%3BfontSize%3D11%3BfontColor%3D%23000000%3BlabelBackgroundColor%3Dnone%3B%22%20vertex%3D%221%22%20connectable%3D%220%22%20parent%3D%221%22%3E%3CmxGeometry%20x%3D%22722.4344917250878%22%20y%3D%223339.9749510437887%22%20as%3D%22geometry%22%2F%3E%3C%2FmxCell%3E%3C%2Froot%3E%3C%2FmxGraphModel%3E&lt;/span&gt;" style="edgeLabel;html=1;align=center;verticalAlign=middle;resizable=0;points=[];fontSize=11;fontColor=#000000;" vertex="1" connectable="0" parent="57">
                    <mxGeometry x="0.7069" y="2" relative="1" as="geometry">
                        <mxPoint as="offset"/>
                    </mxGeometry>
                </mxCell>
                <mxCell id="59" value="стриминг событие о заказах" style="edgeLabel;html=1;align=center;verticalAlign=middle;resizable=0;points=[];fontSize=11;fontColor=#000000;labelBackgroundColor=none;" vertex="1" connectable="0" parent="57">
                    <mxGeometry x="0.7258" y="1" relative="1" as="geometry">
                        <mxPoint x="-56" y="-9" as="offset"/>
                    </mxGeometry>
                </mxCell>
                <mxCell id="60" style="edgeStyle=none;html=1;exitX=1;exitY=0.75;exitDx=0;exitDy=0;entryX=0;entryY=0.25;entryDx=0;entryDy=0;dashed=1;strokeColor=#FF0000;fontSize=11;fontColor=#000000;" edge="1" parent="1" source="68" target="31">
                    <mxGeometry relative="1" as="geometry"/>
                </mxCell>
                <mxCell id="61" value="стриминг событие о клиентах" style="edgeLabel;html=1;align=center;verticalAlign=middle;resizable=0;points=[];fontSize=11;fontColor=#000000;labelBackgroundColor=none;" vertex="1" connectable="0" parent="60">
                    <mxGeometry x="0.492" y="-1" relative="1" as="geometry">
                        <mxPoint as="offset"/>
                    </mxGeometry>
                </mxCell>
                <mxCell id="62" style="edgeStyle=none;html=1;exitX=1;exitY=1;exitDx=0;exitDy=0;entryX=0;entryY=1;entryDx=0;entryDy=0;dashed=1;strokeColor=#FF0000;fontSize=11;fontColor=#000000;" edge="1" parent="1" source="68" target="33">
                    <mxGeometry relative="1" as="geometry"/>
                </mxCell>
                <mxCell id="63" value="стриминг событие о воркерах" style="edgeLabel;html=1;align=center;verticalAlign=middle;resizable=0;points=[];fontSize=11;fontColor=#000000;labelBackgroundColor=none;" vertex="1" connectable="0" parent="62">
                    <mxGeometry x="-0.1089" y="1" relative="1" as="geometry">
                        <mxPoint x="3" y="46" as="offset"/>
                    </mxGeometry>
                </mxCell>
                <mxCell id="64" style="edgeStyle=none;html=1;exitX=1;exitY=0;exitDx=0;exitDy=0;entryX=0;entryY=0.75;entryDx=0;entryDy=0;strokeColor=#000000;fontSize=11;fontColor=#000000;" edge="1" parent="1" source="68" target="35">
                    <mxGeometry relative="1" as="geometry"/>
                </mxCell>
                <mxCell id="65" style="edgeStyle=none;html=1;exitX=0.75;exitY=1;exitDx=0;exitDy=0;strokeColor=#000000;fontSize=11;fontColor=#000000;" edge="1" parent="1" source="68" target="51">
                    <mxGeometry relative="1" as="geometry"/>
                </mxCell>
                <mxCell id="66" style="edgeStyle=none;html=1;exitX=0.25;exitY=1;exitDx=0;exitDy=0;strokeColor=#3333FF;fontSize=11;fontColor=#000000;dashed=1;" edge="1" parent="1" source="68" target="43">
                    <mxGeometry relative="1" as="geometry"/>
                </mxCell>
                <mxCell id="67" value="бизнес событие &lt;br&gt;о новой заявке" style="edgeLabel;html=1;align=center;verticalAlign=middle;resizable=0;points=[];fontSize=11;fontColor=#000000;labelBackgroundColor=none;" vertex="1" connectable="0" parent="66">
                    <mxGeometry x="0.4317" relative="1" as="geometry">
                        <mxPoint x="34" y="-13" as="offset"/>
                    </mxGeometry>
                </mxCell>
                <mxCell id="68" value="" style="swimlane;whiteSpace=wrap;html=1;fontColor=#000000;fillColor=#6666FF;" vertex="1" parent="1">
                    <mxGeometry x="2128" y="1281" width="320" height="161" as="geometry"/>
                </mxCell>
                <mxCell id="69" value="оформление и процесс выполнения услуги для клиента" style="rounded=0;whiteSpace=wrap;html=1;fillColor=#e3c800;fontColor=#000000;strokeColor=#B09500;" vertex="1" parent="68">
                    <mxGeometry x="23" y="33" width="120" height="60" as="geometry"/>
                </mxCell>
                <mxCell id="70" value="выполнение услуги воркером" style="rounded=0;whiteSpace=wrap;html=1;fillColor=#e3c800;fontColor=#000000;strokeColor=#B09500;" vertex="1" parent="68">
                    <mxGeometry x="174" y="33" width="120" height="60" as="geometry"/>
                </mxCell>
                <mxCell id="71" style="edgeStyle=none;html=1;exitX=1;exitY=0.75;exitDx=0;exitDy=0;entryX=0;entryY=0.75;entryDx=0;entryDy=0;dashed=1;strokeColor=#FF0000;fontSize=11;fontColor=#000000;" edge="1" parent="1" source="68" target="53">
                    <mxGeometry relative="1" as="geometry">
                        <mxPoint x="2403" y="1147" as="sourcePoint"/>
                        <mxPoint x="2896.5" y="1438" as="targetPoint"/>
                    </mxGeometry>
                </mxCell>
                <mxCell id="72" value="стриминг событие о воркерах" style="edgeLabel;html=1;align=center;verticalAlign=middle;resizable=0;points=[];fontSize=11;fontColor=#000000;labelBackgroundColor=none;" vertex="1" connectable="0" parent="71">
                    <mxGeometry x="-0.1089" y="1" relative="1" as="geometry">
                        <mxPoint x="71" y="-13" as="offset"/>
                    </mxGeometry>
                </mxCell>
                <mxCell id="73" style="edgeStyle=none;html=1;exitX=1;exitY=0.5;exitDx=0;exitDy=0;entryX=0;entryY=0.5;entryDx=0;entryDy=0;fontSize=11;fontColor=#000000;strokeColor=#FF0000;dashed=1;" edge="1" parent="1" source="68" target="53">
                    <mxGeometry relative="1" as="geometry">
                        <mxPoint x="2178" y="1066.0000000000005" as="sourcePoint"/>
                        <mxPoint x="2671.5" y="1366" as="targetPoint"/>
                    </mxGeometry>
                </mxCell>
                <mxCell id="74" value="стриминг событие о заказах" style="edgeLabel;html=1;align=center;verticalAlign=middle;resizable=0;points=[];fontSize=11;fontColor=#000000;labelBackgroundColor=none;" vertex="1" connectable="0" parent="73">
                    <mxGeometry x="0.6103" y="-4" relative="1" as="geometry">
                        <mxPoint x="-17" y="-10" as="offset"/>
                    </mxGeometry>
                </mxCell>
                <mxCell id="75" style="edgeStyle=none;html=1;exitX=1;exitY=0.25;exitDx=0;exitDy=0;entryX=0;entryY=0.25;entryDx=0;entryDy=0;dashed=1;strokeColor=#FF0000;fontSize=11;fontColor=#000000;" edge="1" parent="1" source="68" target="53">
                    <mxGeometry relative="1" as="geometry">
                        <mxPoint x="2426" y="1150.0000000000005" as="sourcePoint"/>
                        <mxPoint x="2897" y="1228.7500000000005" as="targetPoint"/>
                    </mxGeometry>
                </mxCell>
                <mxCell id="76" value="стриминг событие о клиентах" style="edgeLabel;html=1;align=center;verticalAlign=middle;resizable=0;points=[];fontSize=11;fontColor=#000000;labelBackgroundColor=none;" vertex="1" connectable="0" parent="75">
                    <mxGeometry x="0.492" y="-1" relative="1" as="geometry">
                        <mxPoint as="offset"/>
                    </mxGeometry>
                </mxCell>
                <mxCell id="77" value="&lt;font style=&quot;font-size: 28px;&quot;&gt;Схема из hw0&lt;/font&gt;" style="text;html=1;align=center;verticalAlign=middle;resizable=0;points=[];autosize=1;strokeColor=none;fillColor=none;" vertex="1" parent="1">
                    <mxGeometry x="1048" y="540" width="199" height="46" as="geometry"/>
                </mxCell>
                <mxCell id="78" value="&lt;font style=&quot;font-size: 28px;&quot;&gt;Схема из hw3&lt;/font&gt;" style="text;html=1;align=center;verticalAlign=middle;resizable=0;points=[];autosize=1;strokeColor=none;fillColor=none;" vertex="1" parent="1">
                    <mxGeometry x="2351" y="792" width="199" height="46" as="geometry"/>
                </mxCell>
                <mxCell id="79" value="Необходимые изменения&lt;br&gt;&lt;div style=&quot;text-align: left;&quot;&gt;&lt;span style=&quot;background-color: initial;&quot;&gt;1. Из сервиса vacancies нужно будет выделить в отдельный сервис отсев воркеров&lt;/span&gt;&lt;/div&gt;&lt;div style=&quot;text-align: left;&quot;&gt;&lt;span style=&quot;background-color: initial;&quot;&gt;было: instability (сервис вакансий) = 1/(1+0)=1&lt;/span&gt;&lt;/div&gt;&lt;span style=&quot;background-color: initial;&quot;&gt;&lt;div style=&quot;text-align: left;&quot;&gt;&lt;span style=&quot;background-color: initial;&quot;&gt;стало: instability (сервис вакансий) = 1/(1+1)=0.5&lt;/span&gt;&lt;/div&gt;&lt;div style=&quot;text-align: left;&quot;&gt;&lt;span style=&quot;background-color: initial;&quot;&gt;instability (сервис отсева) = 1/(1+1)=0.5&lt;/span&gt;&lt;/div&gt;&lt;/span&gt;&lt;span style=&quot;background-color: initial;&quot;&gt;&lt;div style=&quot;text-align: left;&quot;&gt;&lt;span style=&quot;background-color: initial;&quot;&gt;&lt;br&gt;&lt;/span&gt;&lt;/div&gt;&lt;div style=&quot;text-align: left;&quot;&gt;&lt;span style=&quot;background-color: initial;&quot;&gt;2. Из сервиса задач выделить в отдельный сервис подбор воркеров&lt;/span&gt;&lt;/div&gt;&lt;div style=&quot;text-align: left;&quot;&gt;&lt;div style=&quot;border-color: var(--border-color);&quot;&gt;&lt;span style=&quot;border-color: var(--border-color); background-color: initial;&quot;&gt;было: instability (сервис задач) = 0/(0+0)=0&lt;/span&gt;&lt;/div&gt;&lt;span style=&quot;border-color: var(--border-color); text-align: center; background-color: initial;&quot;&gt;&lt;div style=&quot;border-color: var(--border-color); text-align: left;&quot;&gt;&lt;span style=&quot;border-color: var(--border-color); background-color: initial;&quot;&gt;стало: instability (сервис задач) = 1/(1+1)=0.5&lt;/span&gt;&lt;/div&gt;&lt;div style=&quot;border-color: var(--border-color); text-align: left;&quot;&gt;&lt;span style=&quot;border-color: var(--border-color); background-color: initial;&quot;&gt;instability (сервис подбора воркеров) = 1/(1+1)=0.5&lt;/span&gt;&lt;/div&gt;&lt;div&gt;&lt;span style=&quot;border-color: var(--border-color); background-color: initial;&quot;&gt;&lt;br&gt;&lt;/span&gt;&lt;/div&gt;&lt;/span&gt;&lt;span style=&quot;border-color: var(--border-color); text-align: center; background-color: initial;&quot;&gt;&lt;/span&gt;&lt;/div&gt;&lt;div style=&quot;text-align: left;&quot;&gt;&lt;span style=&quot;background-color: initial;&quot;&gt;&amp;nbsp;&lt;/span&gt;&lt;/div&gt;&lt;/span&gt;&lt;span style=&quot;background-color: initial;&quot;&gt;&lt;div style=&quot;text-align: left;&quot;&gt;&lt;span style=&quot;background-color: initial;&quot;&gt;3. Из сервиса задач выделить в отдельный сервис сборку заказов&lt;/span&gt;&lt;/div&gt;&lt;div style=&quot;text-align: left;&quot;&gt;&lt;div style=&quot;border-color: var(--border-color);&quot;&gt;&lt;span style=&quot;border-color: var(--border-color); background-color: initial;&quot;&gt;было: instability (сервис задач) =&amp;nbsp;&lt;/span&gt;&lt;span style=&quot;background-color: initial;&quot;&gt;0/(0+0)=0&lt;/span&gt;&lt;/div&gt;&lt;span style=&quot;border-color: var(--border-color); text-align: center; background-color: initial;&quot;&gt;&lt;div style=&quot;border-color: var(--border-color); text-align: left;&quot;&gt;&lt;span style=&quot;border-color: var(--border-color); background-color: initial;&quot;&gt;стало: instability (сервис задач) = 1/(1+0)=1&lt;/span&gt;&lt;/div&gt;&lt;div style=&quot;border-color: var(--border-color); text-align: left;&quot;&gt;&lt;span style=&quot;border-color: var(--border-color); background-color: initial;&quot;&gt;instability (сервис сборки заказов) = 0/(1+0)=0&lt;/span&gt;&lt;/div&gt;&lt;div&gt;&lt;span style=&quot;border-color: var(--border-color); background-color: initial;&quot;&gt;&lt;br&gt;&lt;/span&gt;&lt;/div&gt;&lt;/span&gt;&lt;span style=&quot;border-color: var(--border-color); text-align: center; background-color: initial;&quot;&gt;&lt;/span&gt;&lt;/div&gt;&lt;div style=&quot;text-align: left;&quot;&gt;&lt;span style=&quot;background-color: initial;&quot;&gt;&lt;br&gt;&lt;/span&gt;&lt;/div&gt;&lt;/span&gt;&lt;span style=&quot;background-color: initial;&quot;&gt;&lt;div style=&quot;text-align: left;&quot;&gt;&lt;span style=&quot;background-color: initial;&quot;&gt;4. Из сервиса задач выделить в отдельный сервис выплаты воркерам&lt;/span&gt;&lt;/div&gt;&lt;div style=&quot;text-align: left;&quot;&gt;&lt;div style=&quot;border-color: var(--border-color);&quot;&gt;&lt;span style=&quot;border-color: var(--border-color); background-color: initial;&quot;&gt;было: instability (сервис задач) =&amp;nbsp;&lt;/span&gt;&lt;span style=&quot;background-color: initial;&quot;&gt;0/(0+0)=0&lt;/span&gt;&lt;/div&gt;&lt;span style=&quot;border-color: var(--border-color); text-align: center; background-color: initial;&quot;&gt;&lt;div style=&quot;border-color: var(--border-color); text-align: left;&quot;&gt;&lt;span style=&quot;border-color: var(--border-color); background-color: initial;&quot;&gt;стало: instability (сервис задач) = 2/(2+0)=1&lt;/span&gt;&lt;/div&gt;&lt;div style=&quot;border-color: var(--border-color); text-align: left;&quot;&gt;&lt;span style=&quot;border-color: var(--border-color); background-color: initial;&quot;&gt;instability (сервис выплаты воркерам) = 0/(0+2)=0&lt;/span&gt;&lt;/div&gt;&lt;div&gt;&lt;span style=&quot;border-color: var(--border-color); background-color: initial;&quot;&gt;&lt;br&gt;&lt;/span&gt;&lt;/div&gt;&lt;/span&gt;&lt;span style=&quot;border-color: var(--border-color); text-align: center; background-color: initial;&quot;&gt;&lt;/span&gt;&lt;/div&gt;&lt;div style=&quot;text-align: left;&quot;&gt;&lt;span style=&quot;background-color: initial;&quot;&gt;&lt;br&gt;&lt;/span&gt;&lt;/div&gt;&lt;/span&gt;&lt;span style=&quot;background-color: initial;&quot;&gt;&lt;div style=&quot;text-align: left;&quot;&gt;&lt;span style=&quot;background-color: initial;&quot;&gt;5. Из сервиса задач выделить в отдельный сервис выставление счетов клиентам&lt;/span&gt;&lt;/div&gt;&lt;div style=&quot;text-align: left;&quot;&gt;&lt;div style=&quot;border-color: var(--border-color);&quot;&gt;&lt;span style=&quot;border-color: var(--border-color); background-color: initial;&quot;&gt;было: instability (сервис задач) =&amp;nbsp;&lt;/span&gt;&lt;span style=&quot;background-color: initial;&quot;&gt;0/(0+0)=0&lt;/span&gt;&lt;/div&gt;&lt;span style=&quot;border-color: var(--border-color); text-align: center; background-color: initial;&quot;&gt;&lt;div style=&quot;border-color: var(--border-color); text-align: left;&quot;&gt;&lt;span style=&quot;border-color: var(--border-color); background-color: initial;&quot;&gt;стало: instability (сервис задач) =&amp;nbsp;&lt;/span&gt;&lt;span style=&quot;background-color: initial;&quot;&gt;2/(2+0)=1&lt;/span&gt;&lt;/div&gt;&lt;div style=&quot;border-color: var(--border-color); text-align: left;&quot;&gt;&lt;span style=&quot;border-color: var(--border-color); background-color: initial;&quot;&gt;instability (сервис выставления счетов клиентам) =&amp;nbsp;&lt;/span&gt;&lt;span style=&quot;background-color: initial;&quot;&gt;0/(0+2)=0&lt;/span&gt;&lt;/div&gt;&lt;/span&gt;&lt;span style=&quot;border-color: var(--border-color); text-align: center; background-color: initial;&quot;&gt;&lt;/span&gt;&lt;/div&gt;&lt;div style=&quot;text-align: left;&quot;&gt;&lt;span style=&quot;background-color: initial;&quot;&gt;&lt;br&gt;&lt;/span&gt;&lt;/div&gt;&lt;/span&gt;&lt;span style=&quot;background-color: initial;&quot;&gt;&lt;div style=&quot;text-align: left;&quot;&gt;&lt;span style=&quot;background-color: initial;&quot;&gt;6. Из сервиса задач выделить в отдельный сервис оценку качества работы воркеров&lt;/span&gt;&lt;/div&gt;&lt;div style=&quot;text-align: left;&quot;&gt;&lt;div style=&quot;border-color: var(--border-color);&quot;&gt;&lt;span style=&quot;border-color: var(--border-color); background-color: initial;&quot;&gt;было: instability (сервис задач) =&amp;nbsp;&lt;/span&gt;&lt;span style=&quot;background-color: initial;&quot;&gt;0/(0+0)=0&lt;/span&gt;&lt;/div&gt;&lt;span style=&quot;border-color: var(--border-color); text-align: center; background-color: initial;&quot;&gt;&lt;div style=&quot;border-color: var(--border-color); text-align: left;&quot;&gt;&lt;span style=&quot;border-color: var(--border-color); background-color: initial;&quot;&gt;стало: instability (сервис задач) = 3/(3+0)=1&lt;/span&gt;&lt;/div&gt;&lt;div style=&quot;border-color: var(--border-color); text-align: left;&quot;&gt;&lt;span style=&quot;border-color: var(--border-color); background-color: initial;&quot;&gt;instability (сервис оценки качества) = 0/(0+3)=0&lt;/span&gt;&lt;/div&gt;&lt;div&gt;&lt;span style=&quot;border-color: var(--border-color); background-color: initial;&quot;&gt;&lt;br&gt;&lt;/span&gt;&lt;/div&gt;&lt;/span&gt;&lt;span style=&quot;border-color: var(--border-color); text-align: center; background-color: initial;&quot;&gt;&lt;/span&gt;&lt;/div&gt;&lt;/span&gt;" style="text;html=1;align=center;verticalAlign=middle;resizable=0;points=[];autosize=1;strokeColor=none;fillColor=none;fontSize=28;" vertex="1" parent="1">
                    <mxGeometry x="644" y="1902" width="1157" height="1154" as="geometry"/>
                </mxCell>
                <mxCell id="2" value="" style="swimlane;startSize=0;" vertex="1" parent="1">
                    <mxGeometry x="651" y="699" width="1080" height="976" as="geometry"/>
                </mxCell>
                <mxCell id="83" style="edgeStyle=none;html=1;exitX=0.25;exitY=0;exitDx=0;exitDy=0;entryX=0.75;entryY=1;entryDx=0;entryDy=0;fontSize=28;" edge="1" parent="2" source="8" target="81">
                    <mxGeometry relative="1" as="geometry"/>
                </mxCell>
                <mxCell id="84" style="edgeStyle=none;html=1;exitX=0.5;exitY=1;exitDx=0;exitDy=0;entryX=0.75;entryY=0;entryDx=0;entryDy=0;fontSize=28;dashed=1;" edge="1" parent="2" source="8" target="24">
                    <mxGeometry relative="1" as="geometry"/>
                </mxCell>
                <mxCell id="89" style="edgeStyle=none;html=1;exitX=0.75;exitY=0;exitDx=0;exitDy=0;entryX=0.5;entryY=1;entryDx=0;entryDy=0;fontSize=28;" edge="1" parent="2" source="8" target="86">
                    <mxGeometry relative="1" as="geometry"/>
                </mxCell>
                <mxCell id="8" value="" style="swimlane;startSize=0;" vertex="1" parent="2">
                    <mxGeometry x="223" y="356" width="227" height="174" as="geometry"/>
                </mxCell>
                <mxCell id="12" value="Tasks" style="text;html=1;align=center;verticalAlign=middle;resizable=0;points=[];autosize=1;strokeColor=none;fillColor=none;" vertex="1" parent="8">
                    <mxGeometry x="78" y="77" width="50" height="30" as="geometry"/>
                </mxCell>
                <mxCell id="80" style="edgeStyle=none;html=1;exitX=0;exitY=0.5;exitDx=0;exitDy=0;fontSize=28;dashed=1;" edge="1" parent="2" source="16" target="8">
                    <mxGeometry relative="1" as="geometry"/>
                </mxCell>
                <mxCell id="88" style="edgeStyle=none;html=1;exitX=0.25;exitY=0;exitDx=0;exitDy=0;entryX=0.75;entryY=1;entryDx=0;entryDy=0;fontSize=28;" edge="1" parent="2" source="16" target="86">
                    <mxGeometry relative="1" as="geometry"/>
                </mxCell>
                <mxCell id="16" value="" style="swimlane;startSize=0;" vertex="1" parent="2">
                    <mxGeometry x="584" y="359" width="230" height="168" as="geometry"/>
                </mxCell>
                <mxCell id="20" value="Vacancies" style="text;html=1;align=center;verticalAlign=middle;resizable=0;points=[];autosize=1;strokeColor=none;fillColor=none;" vertex="1" parent="16">
                    <mxGeometry x="65" y="61" width="80" height="30" as="geometry"/>
                </mxCell>
                <mxCell id="24" value="" style="swimlane;startSize=0;" vertex="1" parent="2">
                    <mxGeometry x="162" y="705" width="277" height="168" as="geometry"/>
                </mxCell>
                <mxCell id="28" value="Bets" style="text;html=1;align=center;verticalAlign=middle;resizable=0;points=[];autosize=1;strokeColor=none;fillColor=none;" vertex="1" parent="24">
                    <mxGeometry x="160" y="10" width="50" height="30" as="geometry"/>
                </mxCell>
                <mxCell id="81" value="" style="swimlane;startSize=0;" vertex="1" parent="2">
                    <mxGeometry x="80" y="89" width="227" height="174" as="geometry"/>
                </mxCell>
                <mxCell id="82" value="fur-tune" style="text;html=1;align=center;verticalAlign=middle;resizable=0;points=[];autosize=1;strokeColor=none;fillColor=none;" vertex="1" parent="81">
                    <mxGeometry x="74" y="79" width="59" height="26" as="geometry"/>
                </mxCell>
                <mxCell id="86" value="" style="swimlane;startSize=0;" vertex="1" parent="2">
                    <mxGeometry x="459" y="95" width="230" height="168" as="geometry"/>
                </mxCell>
                <mxCell id="87" value="auth" style="text;html=1;align=center;verticalAlign=middle;resizable=0;points=[];autosize=1;strokeColor=none;fillColor=none;" vertex="1" parent="86">
                    <mxGeometry x="85" y="63" width="41" height="26" as="geometry"/>
                </mxCell>
                <mxCell id="90" value="&lt;div style=&quot;text-align: left;&quot;&gt;&lt;span style=&quot;background-color: initial; font-family: &amp;quot;PT Root UI&amp;quot;, sans-serif; font-size: 27px; caret-color: rgb(55, 53, 47);&quot;&gt;когда свободных людей и ресурсов нет, а опыт и (или) инфраструктура есть&lt;/span&gt;&lt;/div&gt;&lt;div style=&quot;text-align: left;&quot;&gt;&lt;span style=&quot;background-color: initial; font-family: &amp;quot;PT Root UI&amp;quot;, sans-serif; font-size: 27px; caret-color: rgb(55, 53, 47);&quot;&gt;&lt;br&gt;&lt;/span&gt;&lt;/div&gt;&lt;div style=&quot;text-align: left;&quot;&gt;&lt;font face=&quot;PT Root UI, sans-serif&quot;&gt;&lt;span style=&quot;font-size: 27px; caret-color: rgb(55, 53, 47);&quot;&gt;Тут надо смотреть по отказамсистемы, ищем самое важное.&amp;nbsp;&lt;/span&gt;&lt;/font&gt;&lt;/div&gt;&lt;div style=&quot;text-align: left;&quot;&gt;&lt;font face=&quot;PT Root UI, sans-serif&quot;&gt;&lt;span style=&quot;font-size: 27px; caret-color: rgb(55, 53, 47);&quot;&gt;Так как характеристик у меня не было в 0 домашке, то придется нафантащировать проблем&lt;/span&gt;&lt;/font&gt;&lt;/div&gt;&lt;div style=&quot;text-align: left;&quot;&gt;&lt;font face=&quot;PT Root UI, sans-serif&quot;&gt;&lt;span style=&quot;font-size: 27px; caret-color: rgb(55, 53, 47);&quot;&gt;&lt;br&gt;&lt;/span&gt;&lt;/font&gt;&lt;/div&gt;&lt;div style=&quot;text-align: left;&quot;&gt;&lt;font face=&quot;PT Root UI, sans-serif&quot;&gt;&lt;span style=&quot;font-size: 27px; caret-color: rgb(55, 53, 47);&quot;&gt;1. Из сервиса задач выделим алгоритм матчинга. У него свой и очень короткий релизный цикл.&lt;/span&gt;&lt;/font&gt;&lt;/div&gt;&lt;div style=&quot;text-align: left;&quot;&gt;&lt;font face=&quot;PT Root UI, sans-serif&quot;&gt;&lt;span style=&quot;font-size: 27px; caret-color: rgb(55, 53, 47);&quot;&gt;это действие разблокирует быстрые раскладки и тестирование новых фич.&lt;/span&gt;&lt;/font&gt;&lt;/div&gt;&lt;div style=&quot;text-align: left;&quot;&gt;&lt;font face=&quot;PT Root UI, sans-serif&quot;&gt;&lt;span style=&quot;font-size: 27px; caret-color: rgb(55, 53, 47);&quot;&gt;2. выделим списания с клиентов как важную часть бизнеса. если это плохо работает, то зарплату&amp;nbsp;&lt;/span&gt;&lt;/font&gt;&lt;/div&gt;&lt;div style=&quot;text-align: left;&quot;&gt;&lt;font face=&quot;PT Root UI, sans-serif&quot;&gt;&lt;span style=&quot;font-size: 27px; caret-color: rgb(55, 53, 47);&quot;&gt;программистам платить не понятно как&lt;/span&gt;&lt;/font&gt;&lt;/div&gt;&lt;div style=&quot;text-align: left;&quot;&gt;&lt;font face=&quot;PT Root UI, sans-serif&quot;&gt;&lt;span style=&quot;font-size: 27px; caret-color: rgb(55, 53, 47);&quot;&gt;3. выделим выплаты воркерам - уйдут если им не платить вовремя.&lt;/span&gt;&lt;/font&gt;&lt;/div&gt;&lt;div style=&quot;text-align: left;&quot;&gt;&lt;div style=&quot;border-color: var(--border-color);&quot;&gt;&lt;font style=&quot;border-color: var(--border-color);&quot; face=&quot;PT Root UI, sans-serif&quot;&gt;&lt;span style=&quot;border-color: var(--border-color); font-size: 27px; caret-color: rgb(55, 53, 47);&quot;&gt;4. выделим алгоритм отсева воркеров. Бизнес тогда сможет продавать это решение вовне,&amp;nbsp;&lt;/span&gt;&lt;/font&gt;&lt;/div&gt;&lt;div style=&quot;border-color: var(--border-color);&quot;&gt;&lt;font style=&quot;border-color: var(--border-color);&quot; face=&quot;PT Root UI, sans-serif&quot;&gt;&lt;span style=&quot;border-color: var(--border-color); font-size: 27px; caret-color: rgb(55, 53, 47);&quot;&gt;а мы съездить в отпуск на премию.&lt;/span&gt;&lt;/font&gt;&lt;/div&gt;&lt;div style=&quot;border-color: var(--border-color);&quot;&gt;&lt;font style=&quot;border-color: var(--border-color);&quot; face=&quot;PT Root UI, sans-serif&quot;&gt;&lt;span style=&quot;border-color: var(--border-color); font-size: 27px; caret-color: rgb(55, 53, 47);&quot;&gt;5. сборка заказов&lt;/span&gt;&lt;/font&gt;&lt;/div&gt;&lt;div style=&quot;border-color: var(--border-color);&quot;&gt;&lt;font style=&quot;border-color: var(--border-color);&quot; face=&quot;PT Root UI, sans-serif&quot;&gt;&lt;span style=&quot;border-color: var(--border-color); font-size: 27px; caret-color: rgb(55, 53, 47);&quot;&gt;6. оценка качества&lt;/span&gt;&lt;/font&gt;&lt;/div&gt;&lt;div style=&quot;border-color: var(--border-color);&quot;&gt;&lt;font style=&quot;border-color: var(--border-color);&quot; face=&quot;PT Root UI, sans-serif&quot;&gt;&lt;span style=&quot;border-color: var(--border-color); font-size: 27px; caret-color: rgb(55, 53, 47);&quot;&gt;&lt;br&gt;&lt;/span&gt;&lt;/font&gt;&lt;/div&gt;&lt;div style=&quot;border-color: var(--border-color);&quot;&gt;&lt;font style=&quot;border-color: var(--border-color);&quot; face=&quot;PT Root UI, sans-serif&quot;&gt;&lt;span style=&quot;border-color: var(--border-color); font-size: 27px; caret-color: rgb(55, 53, 47);&quot;&gt;&lt;br&gt;&lt;/span&gt;&lt;/font&gt;&lt;/div&gt;&lt;/div&gt;&lt;div style=&quot;text-align: left;&quot;&gt;&lt;font face=&quot;PT Root UI, sans-serif&quot;&gt;&lt;span style=&quot;font-size: 27px; caret-color: rgb(55, 53, 47);&quot;&gt;&lt;br&gt;&lt;/span&gt;&lt;/font&gt;&lt;/div&gt;" style="text;html=1;align=center;verticalAlign=middle;resizable=0;points=[];autosize=1;strokeColor=none;fillColor=none;fontSize=28;" vertex="1" parent="1">
                    <mxGeometry x="2012" y="1816" width="1290" height="583" as="geometry"/>
                </mxCell>
                <mxCell id="91" value="&lt;div style=&quot;text-align: left;&quot;&gt;&lt;span style=&quot;font-family: &amp;quot;PT Root UI&amp;quot;, sans-serif; caret-color: rgb(55, 53, 47); background-color: initial;&quot;&gt;&lt;font style=&quot;font-size: 27px;&quot;&gt;когда есть свободные люди и ресурсы, а опыта и (или) инфраструктуры нет&lt;/font&gt;&lt;/span&gt;&lt;br&gt;&lt;/div&gt;&lt;div style=&quot;text-align: left;&quot;&gt;&lt;span style=&quot;background-color: initial; font-family: &amp;quot;PT Root UI&amp;quot;, sans-serif; font-size: 27px; caret-color: rgb(55, 53, 47);&quot;&gt;&lt;br&gt;&lt;/span&gt;&lt;/div&gt;&lt;div style=&quot;text-align: left;&quot;&gt;&lt;font face=&quot;PT Root UI, sans-serif&quot;&gt;&lt;span style=&quot;font-size: 27px; caret-color: rgb(55, 53, 47);&quot;&gt;Делаем сначала самое простое&lt;/span&gt;&lt;/font&gt;&lt;/div&gt;&lt;div style=&quot;text-align: left;&quot;&gt;&lt;font face=&quot;PT Root UI, sans-serif&quot;&gt;&lt;span style=&quot;font-size: 27px; caret-color: rgb(55, 53, 47);&quot;&gt;&lt;br&gt;&lt;/span&gt;&lt;/font&gt;&lt;/div&gt;&lt;div style=&quot;text-align: left;&quot;&gt;&lt;font face=&quot;PT Root UI, sans-serif&quot;&gt;&lt;span style=&quot;font-size: 27px; caret-color: rgb(55, 53, 47);&quot;&gt;1. выделяем оценку качества. налаживаем стриминг событий, деплоим отдельный сервис.&amp;nbsp;&lt;/span&gt;&lt;/font&gt;&lt;/div&gt;&lt;div style=&quot;text-align: left;&quot;&gt;&lt;font face=&quot;PT Root UI, sans-serif&quot;&gt;&lt;span style=&quot;font-size: 27px; caret-color: rgb(55, 53, 47);&quot;&gt;можем сравнить то, что получилось с тем, что и так работает в монолите&amp;nbsp;&lt;/span&gt;&lt;/font&gt;&lt;/div&gt;&lt;div style=&quot;text-align: left;&quot;&gt;&lt;font face=&quot;PT Root UI, sans-serif&quot;&gt;&lt;span style=&quot;font-size: 27px; caret-color: rgb(55, 53, 47);&quot;&gt;и только потом выпилить из монолита. все можно аккуратно тестировать&lt;/span&gt;&lt;/font&gt;&lt;/div&gt;&lt;div style=&quot;text-align: left;&quot;&gt;&lt;font face=&quot;PT Root UI, sans-serif&quot;&gt;&lt;span style=&quot;font-size: 27px; caret-color: rgb(55, 53, 47);&quot;&gt;2. выделяем выплаты воркерам. так как выплаты периодичные, то старую функциональность&amp;nbsp;&lt;/span&gt;&lt;/font&gt;&lt;/div&gt;&lt;div style=&quot;text-align: left;&quot;&gt;&lt;font face=&quot;PT Root UI, sans-serif&quot;&gt;&lt;span style=&quot;font-size: 27px; caret-color: rgb(55, 53, 47);&quot;&gt;в монолите можно выключить флагом, после этого убедиться в правильной миграции данных,&amp;nbsp;&lt;/span&gt;&lt;/font&gt;&lt;/div&gt;&lt;div style=&quot;text-align: left;&quot;&gt;&lt;font face=&quot;PT Root UI, sans-serif&quot;&gt;&lt;span style=&quot;font-size: 27px; caret-color: rgb(55, 53, 47);&quot;&gt;потом запустить новый сервис. Все аккуратно тестировать. При необходимости откатывать.&lt;/span&gt;&lt;/font&gt;&lt;/div&gt;&lt;div style=&quot;text-align: left;&quot;&gt;&lt;font face=&quot;PT Root UI, sans-serif&quot;&gt;&lt;span style=&quot;font-size: 27px; caret-color: rgb(55, 53, 47);&quot;&gt;Так как выплаты редкие, то есть время на фикс проблем.&lt;/span&gt;&lt;/font&gt;&lt;/div&gt;&lt;div style=&quot;text-align: left;&quot;&gt;&lt;font face=&quot;PT Root UI, sans-serif&quot;&gt;&lt;span style=&quot;font-size: 27px; caret-color: rgb(55, 53, 47);&quot;&gt;3. То же самое со списаниями с клиентов. Списания периодичные. Можно все подготовить,&amp;nbsp;&lt;/span&gt;&lt;/font&gt;&lt;/div&gt;&lt;div style=&quot;text-align: left;&quot;&gt;&lt;font face=&quot;PT Root UI, sans-serif&quot;&gt;&lt;span style=&quot;font-size: 27px; caret-color: rgb(55, 53, 47);&quot;&gt;задеплоить, выключить флагом, запустить сервис. Есть время на фикс проблем.&lt;/span&gt;&lt;/font&gt;&lt;/div&gt;&lt;div style=&quot;text-align: left;&quot;&gt;&lt;font face=&quot;PT Root UI, sans-serif&quot;&gt;&lt;span style=&quot;font-size: 27px; caret-color: rgb(55, 53, 47);&quot;&gt;4. сборка заказов.&amp;nbsp;&lt;/span&gt;&lt;/font&gt;&lt;span style=&quot;background-color: initial; font-family: &amp;quot;PT Root UI&amp;quot;, sans-serif; font-size: 27px; caret-color: rgb(55, 53, 47);&quot;&gt;Можно запланировать ночное обновление. Или придется переключаться на&lt;/span&gt;&lt;/div&gt;&lt;div style=&quot;text-align: left;&quot;&gt;&lt;span style=&quot;background-color: initial; font-family: &amp;quot;PT Root UI&amp;quot;, sans-serif; font-size: 27px; caret-color: rgb(55, 53, 47);&quot;&gt;горячем, если сборки круглосуточные. Нужно синхронизировать данные репликой, поднять сервис,&lt;/span&gt;&lt;/div&gt;&lt;div style=&quot;text-align: left;&quot;&gt;&lt;span style=&quot;background-color: initial; font-family: &amp;quot;PT Root UI&amp;quot;, sans-serif; font-size: 27px; caret-color: rgb(55, 53, 47);&quot;&gt;в монолите переключиться на отправку событий.&lt;/span&gt;&lt;/div&gt;&lt;div style=&quot;text-align: left;&quot;&gt;&lt;span style=&quot;background-color: initial; font-family: &amp;quot;PT Root UI&amp;quot;, sans-serif; font-size: 27px; caret-color: rgb(55, 53, 47);&quot;&gt;5. подбор воркера.&amp;nbsp;&lt;/span&gt;&lt;span style=&quot;background-color: initial; font-family: &amp;quot;PT Root UI&amp;quot;, sans-serif; font-size: 27px; caret-color: rgb(55, 53, 47);&quot;&gt;Нужно синхронизировать данные репликой, поднять сервис,&lt;/span&gt;&lt;/div&gt;&lt;div style=&quot;border-color: var(--border-color); text-align: left;&quot;&gt;&lt;span style=&quot;border-color: var(--border-color); background-color: initial; font-family: &amp;quot;PT Root UI&amp;quot;, sans-serif; font-size: 27px; caret-color: rgb(55, 53, 47);&quot;&gt;в монолите переключиться на отправку событий.&lt;/span&gt;&lt;/div&gt;&lt;div style=&quot;border-color: var(--border-color); text-align: left;&quot;&gt;&lt;span style=&quot;border-color: var(--border-color); background-color: initial; font-family: &amp;quot;PT Root UI&amp;quot;, sans-serif; font-size: 27px; caret-color: rgb(55, 53, 47);&quot;&gt;6. отсев воркеров.&amp;nbsp;&lt;/span&gt;&lt;span style=&quot;background-color: initial; font-family: &amp;quot;PT Root UI&amp;quot;, sans-serif; font-size: 27px; caret-color: rgb(55, 53, 47);&quot;&gt;Нужно синхронизировать данные репликой, поднять сервис,&lt;/span&gt;&lt;/div&gt;&lt;div style=&quot;border-color: var(--border-color); text-align: left;&quot;&gt;&lt;span style=&quot;border-color: var(--border-color); background-color: initial; font-family: &amp;quot;PT Root UI&amp;quot;, sans-serif; font-size: 27px; caret-color: rgb(55, 53, 47);&quot;&gt;в монолите переключиться на отправку событий.&lt;/span&gt;&lt;/div&gt;&lt;div style=&quot;text-align: left;&quot;&gt;&lt;br&gt;&lt;/div&gt;&lt;div style=&quot;text-align: left;&quot;&gt;&lt;div style=&quot;border-color: var(--border-color);&quot;&gt;&lt;font style=&quot;border-color: var(--border-color);&quot; face=&quot;PT Root UI, sans-serif&quot;&gt;&lt;span style=&quot;border-color: var(--border-color); font-size: 27px; caret-color: rgb(55, 53, 47);&quot;&gt;&lt;br&gt;&lt;/span&gt;&lt;/font&gt;&lt;/div&gt;&lt;div style=&quot;border-color: var(--border-color);&quot;&gt;&lt;font style=&quot;border-color: var(--border-color);&quot; face=&quot;PT Root UI, sans-serif&quot;&gt;&lt;span style=&quot;border-color: var(--border-color); font-size: 27px; caret-color: rgb(55, 53, 47);&quot;&gt;&lt;br&gt;&lt;/span&gt;&lt;/font&gt;&lt;/div&gt;&lt;/div&gt;&lt;div style=&quot;text-align: left;&quot;&gt;&lt;font face=&quot;PT Root UI, sans-serif&quot;&gt;&lt;span style=&quot;font-size: 27px; caret-color: rgb(55, 53, 47);&quot;&gt;&lt;br&gt;&lt;/span&gt;&lt;/font&gt;&lt;/div&gt;" style="text;html=1;align=center;verticalAlign=middle;resizable=0;points=[];autosize=1;strokeColor=none;fillColor=none;fontSize=28;" vertex="1" parent="1">
                    <mxGeometry x="2007" y="2360" width="1300" height="818" as="geometry"/>
                </mxCell>
            </root>
        </mxGraphModel>
    </diagram>
</mxfile>